<?xml version="1.0" encoding="UTF-8"?>
<svg id="_Слой_2" data-name="Слой 2" xmlns="http://www.w3.org/2000/svg" xmlns:xlink="http://www.w3.org/1999/xlink" viewBox="0 0 1922.17 1909.85">
  <defs>
    <style>
      .cls-1 {
        fill: #fff;
      }

      .cls-2 {
        fill: #445718;
      }

      .cls-3 {
        fill: #76b3dd;
      }

      .cls-4 {
        fill: #232c33;
      }

      .cls-5 {
        fill: #543f52;
      }

      .cls-6 {
        fill: #6b8c12;
      }

      .cls-7 {
        fill: #86aeab;
      }

      .cls-8, .cls-9 {
        fill: #101111;
      }

      .cls-10 {
        fill: #789d10;
      }

      .cls-11 {
        fill: url(#_Безымянный_градиент_14);
      }

      .cls-12 {
        fill: #a5c3c0;
      }

      .cls-13 {
        fill: #0f1120;
      }

      .cls-14 {
        fill: #22472f;
      }

      .cls-15 {
        fill: #5e7a14;
      }

      .cls-16 {
        fill: url(#_Безымянный_градиент_3);
      }

      .cls-9 {
        opacity: .5;
      }
    </style>
    <linearGradient id="_Безымянный_градиент_3" data-name="Безымянный градиент 3" x1="960" y1="964.8" x2="960" y2="0" gradientUnits="userSpaceOnUse">
      <stop offset="0" stop-color="#403e7f"/>
      <stop offset="1" stop-color="#9480f3"/>
    </linearGradient>
    <linearGradient id="_Безымянный_градиент_14" data-name="Безымянный градиент 14" x1="0" y1="1363.78" x2="1920" y2="1363.78" gradientUnits="userSpaceOnUse">
      <stop offset="0" stop-color="#121445"/>
      <stop offset="1" stop-color="#090b2d"/>
    </linearGradient>
  </defs>
  <g id="_рабочая_область" data-name="рабочая область">
    <g id="_шапка" data-name="шапка">
      <g id="bgSvg">
        <rect class="cls-16" y="0" width="1920" height="964.8"/>
        <g>
          <polygon class="cls-5" points="90.7 716.51 25.35 764.25 20.65 900.04 234.04 900.04 177.43 779.78 90.7 716.51"/>
          <polygon class="cls-5" points="163.61 792.72 212.65 744.98 272.65 792.72 306.83 842.28 373.35 777.85 373.35 731.93 377.78 724.11 442.43 595.11 476.91 595.11 564.83 443.41 589.61 446.8 597.83 464.02 606.43 460.11 644.39 498.85 644.39 523.89 701.52 559.5 711.7 558.98 735.96 632.8 751.22 619.11 785.26 619.11 802.87 637.17 827.52 645.98 841.61 630.2 865.09 630.2 969.57 448.37 1027.48 523.5 1039.61 557.54 1088.91 590.8 1124.91 545.67 1172.39 515.67 1262.91 338.54 1318.74 328.63 1374.57 222.2 1441.87 236.8 1523.26 324.98 1560.3 327.59 1631.78 430.37 1664.52 426.65 1709.33 375.98 1809.17 546.2 1861.35 571.04 1888.15 607.24 1907.52 607.24 1907.52 914.22 163.61 914.22 163.61 792.72"/>
        </g>
        <path class="cls-10" d="M0,888.3s51.96-23.48,95.78-20.35c43.83,3.13,175.3,46.96,230.09,46.96s397.57,25.04,433.57,29.74c36,4.7,167.48,15.65,400.7,0,233.22-15.65,759.87,54.78,759.87,54.78v902.74H0V888.3Z"/>
        <path class="cls-11" d="M1920,999.43v-79.56s-526.65-33.14-759.87-17.48c-34.1,2.29-66,4-95.77,5.26l-816.09-47.24c-57.67-13.22-123.83-32.67-152.49-34.72C51.96,822.55,0,846.03,0,846.03l2,41.64s51.96-23.48,95.78-20.35c43.83,3.13,175.3,46.96,230.09,46.96s397.56,25.04,433.56,29.74c18.11,2.36,60.4,6.31,127.64,7.65C595.48,957.08,73.85,971.67,0,1007.65v10.37c104.58,28.62,892.48,81.31,892.48,90.59,0,10.56-93.39,29.09-98.09,56.22s63.13,33.39,152.35,36c89.22,2.61,244.7-12,265.57-.52C1233.17,1211.78,421.13,1373.91,0,1375.08v527.09s56.65-93.52,152.13-146.74c95.48-53.22,366.26-190.96,648-255.13,281.74-64.17,818.61-186.26,873.39-219.13,54.78-32.87,78.26-65.74,65.74-87.65-12.52-21.91-146.35-55.56-250.43-75.13-104.09-19.56-43.83-10.17-113.48-20.35s-83.74,2.35-136.96-4.7-66.52-13.3-99.39-32.87c-32.87-19.56-79.83-10.96-126.78-11.74-46.96-.78-159.65,.78-185.48-25.83-25.83-26.61,261.95-74.11,261.95-74.11,0,0-5.12,.04-14.66,.14,27.56-1.22,56.91-2.83,88.09-4.93,233.22-15.65,757.87,55.41,757.87,55.41Z"/>
        <path class="cls-2" d="M826,1015.71s-5.31,15.67,0,19.98c5.31,4.3,28.4,11.48,92.83,21.65,64.43,10.17,165.22,6,186.57,13.83l38.96,17.4c32.87,19.57,46.17,25.83,99.39,32.87,53.22,7.04,67.3-5.48,136.96,4.7,69.65,10.17,9.39,.78,113.48,20.35,104.09,19.57,230.7,58.17,241.29,81.08,0,0,16.31-16.7,3.79-36.13-13.67-21.22-146.35-55.57-250.43-75.13-104.09-19.57-43.83-10.17-113.48-20.35-69.65-10.17-83.74,2.35-136.96-4.7-53.22-7.04-66.52-13.3-99.39-32.87-32.87-19.57-79.83-10.96-126.78-11.74-46.96-.78-160.4-4.32-186.22-30.93"/>
        <path class="cls-2" d="M0,1320.3s144.3-15.65,222.57-17.22c78.26-1.57,208.17-15.65,325.57-39.13,117.39-23.48,122.54-56.77,187.83-70.43,65.29-13.67-197.22-79.04-197.22-79.04L0,1044.82v275.48Z"/>
        <path class="cls-2" d="M0,1007.65c103.61-50.48,872.97-55.67,872.97-55.67,4.39,.81,3.95,16.36,3.95,16.36,0,0-769.36,5.19-872.97,55.67l-3.95-16.36Z"/>
        <path class="cls-14" d="M892.48,1138.02c6.26-16.37,0-30.07,0-30.07,0,10.57-93.39,29.09-98.09,56.22-1.17,6.76,2.17,12.23,9.22,16.67,4.7-27.13,85.09-32.95,88.87-42.82Z"/>
        <path class="cls-2" d="M1212.3,1228.21c-10.54,21.36-791.17,173.61-1212.3,174.78v-32.52c421.13-1.17,1233.17-158.69,1212.3-170.17,0,0,9.91,7.83,0,27.91Z"/>
        <polygon class="cls-15" points="1920 477.43 1860.57 761.51 1895 751.34 1897.35 791.25 1860.57 815.51 1872.3 815.51 1898.13 801.43 1896.57 824.91 1857.43 837.43 1833.17 939.95 1882.48 927.56 1880.13 934.47 1841.1 974.65 1825.75 1109.57 1920 1110.04 1920 477.43"/>
        <path class="cls-2" d="M394.9,1636.87s-15.42,118.56,113.71,151.43c129.13,32.87,553.84,69.76,633.91,66.91,120.91-4.3,402.26-45.39,433.96-55.96,31.7-10.57-466.83-148.3-466.83-148.3l-247.91-14.08s93.65-92.41,71.44-119.09c-56.24-67.56-460.64,69.79-538.28,119.09Z"/>
        <g>
          <polygon class="cls-15" points="145.87 992.38 171.14 992.67 171.14 1008.82 135.15 1045.55 168.83 1045.55 135.15 1185.17 181.48 1185.17 181.48 788.12 145.87 992.38"/>
          <polygon class="cls-6" points="247.09 1053.69 202.22 1006.21 198.1 973.04 221.52 964.8 181.48 788.12 181.48 1185.17 235.09 1185.17 202.22 1095.95 247.09 1053.69"/>
        </g>
        <g>
          <polygon class="cls-12" points="280.87 938.38 258.05 925.47 277.76 929.25 242.91 818.38 242.91 901.43 242.91 1173.95 316.48 1173.95 280.87 938.38"/>
          <polygon class="cls-7" points="221 909.69 214.3 932.92 235.61 926.91 235.09 932.92 214.3 944.12 191.12 1173.95 242.91 1173.95 242.91 901.43 221 909.69"/>
          <polygon class="cls-7" points="225.65 897.3 242.91 901.43 242.91 818.38 225.65 897.3"/>
        </g>
        <g>
          <polygon class="cls-7" points="351.7 957.17 381.43 957.17 381.43 807.69 351.7 957.17"/>
          <polygon class="cls-12" points="381.43 807.69 381.43 957.17 417.43 957.17 381.43 807.69"/>
        </g>
        <g>
          <polygon class="cls-7" points="424.48 963.04 441.3 963.04 441.3 864.04 424.48 963.04"/>
          <polygon class="cls-12" points="441.3 864.04 441.3 963.04 464.39 963.04 441.3 864.04"/>
        </g>
        <g>
          <polygon class="cls-15" points="483.43 916.81 516.3 896.09 516.3 996.22 521.52 1000.27 521.52 603.95 483.43 916.81"/>
          <polygon class="cls-6" points="567.43 909.37 528.3 862.1 531.17 857.85 565.35 897.15 521.52 603.95 521.52 1000.27 578.91 1044.82 567.43 909.37"/>
        </g>
        <g>
          <polygon class="cls-15" points="1696.74 907.6 1710.57 910.21 1693.35 961.08 1685.26 1022.38 1679.78 1068.3 1717.35 1068.85 1717.35 785.51 1696.74 907.6"/>
          <polygon class="cls-6" points="1750.48 969.43 1727.52 944.38 1724.26 917.51 1744.74 925.6 1717.35 785.51 1717.35 1068.85 1768.74 1069.6 1750.48 969.43"/>
        </g>
        <g>
          <path class="cls-7" d="M602.91,1049.51l28.57-18.78-1.96,12.52-45.39,52.44v104.48s32.23,3.33,55.96,3.51v-383.21l-37.17,229.04Z"/>
          <path class="cls-12" d="M712.87,1194.3l-10.96-48.11-36-26.63,4.3-4.7,33.26,15.07-24.65-76.51-23.87-8.22-1.17-10.17,21.91,6.26-2.35-7.83-19.57-10.56v-18.99l27,2.95-40.7-186.39v383.21c.66,0,1.31,0,1.96,0,23.87,0,70.83-9.39,70.83-9.39Z"/>
        </g>
        <g>
          <polygon class="cls-12" points="1049 981.17 1027.09 974.38 1028.65 969.69 1051.61 975.95 1043.78 960.3 1023.43 954.04 1016.91 939.43 1014.57 913.86 1032.83 919.86 1009.35 831.95 1009.35 1007.78 1064.65 1007.78 1049 981.17"/>
          <polygon class="cls-7" points="989 912.3 1005.7 902.91 1004.65 912.3 985.87 922.21 978.57 957.17 997.91 952.05 996.9 966.97 974.91 974.38 969.17 1007.78 1009.35 1007.78 1009.35 831.95 989 912.3"/>
        </g>
        <g>
          <polygon class="cls-7" points="1083.04 859.73 1097.91 859.73 1083.04 872.65 1078.35 906.69 1095.96 899.65 1093.22 917.25 1081.87 922.73 1080.7 926.25 1096.35 924.3 1093.22 945.43 1073.26 960.3 1073.26 973.21 1089.7 964.6 1084.61 984.56 1069.35 991.99 1064.65 1031.51 1102.61 1031.51 1102.61 765.82 1083.04 859.73"/>
          <polygon class="cls-12" points="1117.48 961.47 1119.43 951.69 1142.13 953.25 1115.91 903.17 1115.91 896.12 1131.96 901.6 1102.61 765.82 1102.61 1031.51 1139 1031.51 1125.7 974.78 1117.48 961.47"/>
        </g>
        <g>
          <polygon class="cls-6" points="1193.39 941.91 1193.39 925.86 1239.96 939.17 1233.7 905.12 1177.35 856.99 1179.7 850.34 1207.48 865.6 1193.78 827.25 1173.04 816.3 1176.17 810.04 1194.17 818.65 1187.91 793.99 1168.35 782.65 1169.91 776.78 1185.96 783.82 1165.61 695.38 1165.61 1031.51 1218.04 1031.51 1212.17 973.99 1197.7 971.65 1196.52 963.04 1223.52 966.95 1193.39 941.91"/>
          <polygon class="cls-15" points="1142.13 783.04 1136.26 815.51 1156.22 807.3 1154.26 815.51 1133.13 829.21 1128.43 875.38 1151.91 858.95 1152.7 882.43 1133.91 896.12 1135.09 903.17 1154.65 894.95 1152.3 923.51 1128.43 939.95 1147.02 954.82 1111.61 980.25 1106.13 1031.51 1165.61 1031.51 1165.61 695.38 1142.13 783.04"/>
        </g>
        <g>
          <polygon class="cls-15" points="1266.17 957.17 1273.61 968.12 1263.43 1025.65 1291.22 1029.64 1291.22 861.3 1266.17 957.17"/>
          <polygon class="cls-6" points="1299.83 960.3 1300.22 940.34 1315.09 936.82 1291.22 861.3 1291.22 1029.64 1320.57 1033.86 1299.83 960.3"/>
        </g>
        <g>
          <polygon class="cls-7" points="1322.91 853.34 1340.65 848.65 1340.65 867.66 1322.91 882.56 1337 875.25 1337 890.38 1317.17 898.67 1309.87 950.38 1330.48 944.4 1330.48 950.38 1298.91 975.43 1302.4 1037.93 1351.09 1037.93 1351.09 697.86 1322.91 853.34"/>
          <polygon class="cls-12" points="1385.52 963.95 1359.43 957.17 1360.48 943.6 1380.83 934.21 1378.22 925.86 1365.7 934.73 1367.78 927.43 1378.22 920.65 1377.96 903.95 1363.61 905.78 1366.48 879.95 1375.87 873.43 1351.09 697.86 1351.09 1037.93 1394.39 1037.93 1385.52 963.95"/>
        </g>
        <g>
          <polygon class="cls-7" points="1517.39 891.43 1531.48 874.21 1532.26 882.04 1517.39 899.65 1512.3 962.25 1529.13 952.08 1527.57 984.17 1500.96 997.08 1503.3 1008.43 1496.85 1051.47 1535.78 1051.47 1535.78 751.34 1517.39 891.43"/>
          <polygon class="cls-12" points="1564.74 973.41 1544.2 956.19 1545.76 950.71 1562.78 956.19 1566.7 951.49 1548.11 945.23 1550.46 940.73 1574.33 947.38 1543.8 932.51 1542.63 893.19 1555.93 902.97 1535.78 751.34 1535.78 1051.47 1579.02 1051.47 1564.74 973.41"/>
        </g>
        <g>
          <polygon class="cls-7" points="1632.04 851.78 1648.48 843.17 1648.48 852.56 1633.35 864.3 1624.74 909.17 1649 895.08 1650.3 918.82 1621.87 936.82 1631 936.82 1653.96 929.51 1650.83 957.17 1633.61 966.56 1617.18 1066.26 1664.91 1066.98 1664.91 728.99 1632.04 851.78"/>
          <polygon class="cls-12" points="1700.52 918.52 1674.3 894.82 1674.3 889.08 1708.74 903.43 1694.91 864.3 1673.26 853.6 1674.3 847.86 1693.09 855.95 1683.43 827.25 1664.94 821.78 1665.43 813.95 1686.04 821.51 1664.91 728.99 1664.91 1066.98 1725.96 1067.91 1700.52 918.52"/>
        </g>
        <g>
          <path class="cls-7" d="M1736.39,872.65l25.04-8.87-.52,28.7-22.43,19.3,.78,9.65,21.13-15.91-3.26,19.57-24.52,8.94-24.91,84.71,49.99-9.75-.17,8.45-46.44,21.65-23.74,62.35s23.74,9.65,87.39,15.91c1.06,.1,2.1,.21,3.13,.3v-453.7l-41.48,208.7Z"/>
          <path class="cls-12" d="M1794.3,918.04l4.17-16.63,25.04,24.2-45.65-261.65v453.7c60.67,5.84,64.96,2.56,64.96,2.56v-143.48l-48.52-58.7Z"/>
        </g>
        <g>
          <polygon class="cls-7" points="1249.35 649.86 1222.74 836.12 1243.61 814.73 1239.96 831.95 1222.74 856.47 1211.78 935.78 1235.78 935.78 1233.17 967.6 1207.09 980.12 1202.83 1049.46 1250.25 1051.01 1249.39 650.23 1249.35 649.86"/>
          <polygon class="cls-12" points="1297.87 999.95 1263.43 982.21 1264.48 973.86 1296.83 988.47 1292.65 945.69 1259.26 929.51 1258.22 919.86 1275.17 921.17 1260.83 910.21 1276.48 908.91 1257.5 899.73 1254.04 841.34 1274.91 855.95 1249.39 650.23 1250.25 1051.01 1304.17 1052.76 1297.87 999.95"/>
        </g>
        <g>
          <polygon class="cls-15" points="1582.48 876.04 1601.26 855.95 1603.61 870.56 1574.65 904.47 1573.87 976.99 1589.6 962.57 1589.52 1005.43 1560.83 1022.91 1559.61 1074.84 1610.33 1075.4 1610.33 689.51 1582.48 876.04"/>
          <polygon class="cls-6" points="1630.49 966.46 1634.39 894.82 1637.78 881.51 1639.87 855.95 1626.37 843.69 1610.33 689.51 1610.33 1075.4 1652.91 1075.86 1630.49 966.46"/>
        </g>
        <g>
          <polygon class="cls-15" points="1434.04 835.86 1453.09 819.82 1450.48 830.78 1434.04 849.56 1425.83 932.91 1442.65 918.82 1440.7 961.86 1425.83 970.47 1424.13 1059.17 1459.48 1059.17 1459.48 652.73 1434.04 835.86"/>
          <polygon class="cls-6" points="1504.09 949.73 1469.26 927.43 1470.83 918.43 1495.48 928.99 1494.7 919.99 1470.04 906.69 1472.78 905.12 1496.65 913.73 1493.52 907.47 1467.7 895.73 1465.35 838.6 1487.26 853.34 1459.48 652.73 1459.48 1059.17 1519.74 1059.17 1504.09 949.73"/>
        </g>
        <g>
          <polygon class="cls-7" points="1367.52 888.82 1370.39 892.47 1364.39 908.38 1379.13 903.17 1377.7 918.56 1367.78 931.34 1370.65 932.65 1381.61 928.73 1360.74 945.75 1349.78 996.82 1371.83 991.34 1349.78 1012.47 1337.26 1059.17 1393.87 1059.17 1393.87 768.3 1367.52 888.82"/>
          <polygon class="cls-12" points="1434.04 1010.65 1428.3 961.86 1409 941.51 1407.7 930.04 1424.65 940.47 1393.87 768.3 1393.87 1059.17 1453.09 1059.17 1434.04 1010.65"/>
        </g>
        <g>
          <polygon class="cls-7" points="93.43 872.65 112.33 863.92 111.04 872.65 93.43 881.65 88.74 915.3 105.17 905.91 104 915.3 79.35 926.65 65.45 997.08 85.35 992.38 53.52 1058.38 74.39 1050.04 60.3 1107.95 113.23 1107.95 113.78 750.56 93.43 872.65"/>
          <polygon class="cls-12" points="161.13 1051.47 128.65 1051.47 168.17 1015.47 146.65 969.3 163.09 962.45 125 901.86 143.26 904.47 113.78 750.56 113.23 1107.95 171.14 1107.95 161.13 1051.47"/>
        </g>
        <g>
          <path class="cls-3" d="M631.17,1218.36s.43-9.65,.43-14.53c0-148.29-128.42-268.5-286.83-268.5S57.95,1055.54,57.95,1203.83c0,4.88,.16,9.72,.43,14.53,0,0-46.6,19.4,286.58,19.4,295.95,0,286.21-19.4,286.21-19.4Z"/>
          <path class="cls-1" d="M344.77,1162.45c-186.21,0-278.41-18.08-279.32-18.27l2.86-14.25c.9,.18,91.92,17.98,276.46,17.98s275.56-17.8,276.46-17.98l2.86,14.25c-.91,.18-93.11,18.27-279.32,18.27Z"/>
          <path class="cls-4" d="M171.14,1235.13l-4.84-.13c3.94-140.55,55.56-227.32,94.11-261.37,41.98-37.06,82.48-40.58,84.18-40.71l.38,4.82c-.4,.03-40.82,3.6-81.6,39.74-37.72,33.43-88.34,119.06-92.22,257.64Z"/>
          <path class="cls-4" d="M517.92,1235.13l4.84-.13c-3.94-140.55-55.56-227.32-94.11-261.37-41.98-37.06-82.48-40.58-84.18-40.71l-.38,4.82c.4,.03,40.82,3.6,81.6,39.74,37.72,33.43,88.34,119.06,92.22,257.64Z"/>
        </g>
        <g>
          <path class="cls-1" d="M1558.96,1718.02s.66-14.68,.66-22.09c0-225.47-195.25-408.24-436.1-408.24s-436.1,182.77-436.1,408.24c0,7.41,.24,14.78,.66,22.09,0,0-13.16,25.49,435.73,29.5,449.96,4.02,435.16-29.5,435.16-29.5Z"/>
          <path class="cls-8" d="M1123.51,1633.01c-283.11,0-423.3-27.49-424.68-27.77l4.35-21.66c1.37,.27,139.76,27.34,420.33,27.34s418.97-27.07,420.33-27.34l4.35,21.66c-1.38,.28-141.57,27.77-424.68,27.77Z"/>
          <path class="cls-4" d="M859.52,1743.51l-7.36-.2c5.99-213.7,84.48-345.63,143.09-397.39,63.83-56.35,125.4-61.71,127.99-61.9l.57,7.34c-.61,.05-62.06,5.48-124.07,60.43-57.34,50.82-134.31,181.02-140.21,391.73Z"/>
          <path class="cls-4" d="M1386.77,1743.51l7.36-.2c-5.99-213.7-84.48-345.63-143.09-397.39-63.83-56.35-125.4-61.71-127.99-61.9l-.57,7.34c.61,.05,62.06,5.48,124.07,60.43,57.34,50.82,134.31,181.02,140.21,391.73Z"/>
        </g>
        <polygon class="cls-6" points="0 650.78 32 833.91 42.57 843.3 56.15 946.6 26.91 918.82 48.57 960.3 57.7 961.86 60.04 998.91 71.26 977.25 74.13 1008.3 64.74 1012.21 70.35 1098.82 37.07 1075.67 37.07 1136.38 80.91 1162.45 88.74 1263.56 0 1278.82 0 650.78"/>
        <g>
          <polygon class="cls-13" points="1496.85 1067.3 1427.78 1448.81 1472 1439.74 1468.87 1491.01 1425.83 1518.22 1430.52 1522.16 1468.09 1502.05 1468.48 1534.39 1416.04 1559.63 1337.26 1909.85 1645.35 1909.85 1613.78 1631.01 1537.93 1519.01 1593.7 1547.4 1496.85 1067.3"/>
          <polygon class="cls-13" points="1664.91 1208.23 1625.78 1520.59 1649.26 1499.29 1650.04 1520.59 1620.3 1555.29 1617.2 1661.16 1641.05 1642.06 1637.52 1709.1 1576.48 1909.85 1805 1909.85 1742.55 1722.51 1677.43 1621.55 1681.35 1613.66 1738.48 1653.89 1732.22 1607.35 1711.87 1590 1711.87 1555.29 1682.91 1531.63 1682.91 1517.43 1706.39 1529.26 1698.57 1464.58 1663.35 1441.71 1669.61 1427.51 1690.74 1445.29 1664.91 1208.23"/>
          <polygon class="cls-13" points="1822.74 1048.37 1786.74 1288.69 1822.74 1270.28 1822.74 1282.38 1782.57 1303.41 1768.74 1371.24 1817.52 1350.21 1817 1361.25 1761.7 1388.52 1745 1488.57 1813.35 1451.7 1725.7 1559.04 1705.35 1672.03 1770.04 1644.69 1750.22 1909.85 1894.74 1909.85 1851.96 1641 1844.13 1559.04 1883.26 1580.01 1885.35 1572.64 1855.09 1546.88 1849.35 1411.21 1891.61 1333.91 1863.96 1300.25 1822.74 1048.37"/>
          <polygon class="cls-13" points="1920 927.56 1862.39 1237.68 1898.91 1265.02 1862.39 1314.45 1852.22 1479.11 1877.52 1502.71 1847.26 1538.99 1855.09 1546.88 1886.91 1527.95 1887.43 1614.71 1843.61 1648.89 1843.61 1909.85 1920 1909.85 1920 927.56"/>
        </g>
        <rect id="bgShadow" class="cls-9" y="0" width="1922.17" height="1902.17"/>
      </g>
    </g>
  </g>
</svg>