<?xml version="1.0" encoding="UTF-8"?>
<svg id="_Слой_2" data-name="Слой 2" xmlns="http://www.w3.org/2000/svg" viewBox="0 0 126.53 86.85">
  <defs>
    <style>
      .cls-1 {
        fill: #789d10;
      }
    </style>
  </defs>
  <g id="_рабочая_область" data-name="рабочая область">
    <g id="_2секция" data-name="2секция">
      <g>
        <path class="cls-1" d="M104.13,56.73v-18.39l-37.79,12.95s.38,.15-1.41,.15-3.57-.58-3.57-.58l-35.5-11.87-1.09,6.91s4.53,2.89,4.53,6.6,.47,4.41-2.42,8.59c0,0,8.98,11.4,38.94,10.7,0,0,27.94-2.17,35.85-10.08,0,0,1.99-1.64,2.46-4.63"/>
        <path class="cls-1" d="M64.45,44.38c1.39,0,62.2-19.06,62.08-21.58s-.3-2.57-2.93-3.59S67.14,0,64.45,0,3.83,18.38,2.39,21.13c-1.44,2.75,3.11,4.07,3.11,4.07,0,0,10.71,3.05,11.43,3.83s-1.98,2.69-2.99,6.05c-1.02,3.35-2.45,9.52-2.21,11.07,0,0-3.65,1.98-3.59,5.75,.06,3.77,3.59,5.81,3.59,5.81,0,0,1.08,11.67-11.73,24.3,0,0,2.33,3.71,9.58,4.85,0,0,8.32-1.14,9.34-11.85,1.02-10.71-.66-17.96-.66-17.96,0,0,2.78-2.18,2.38-5.55-.4-3.37-2.83-4.62-2.83-4.62,0,0,.09-9.52,3.91-13.6,3.82-4.09,30.62-15.94,42.38-18.5,0,0,3.73,.36,2.87,4.22-.58,2.62-33.04,13.42-35.24,14.68l32.73,10.71Z"/>
      </g>
    </g>
  </g>
</svg>