<?xml version="1.0" encoding="UTF-8"?>
<svg id="_Слой_2" data-name="Слой 2" xmlns="http://www.w3.org/2000/svg" viewBox="0 0 57.87 86.85">
  <defs>
    <style>
      .cls-1 {
        fill: #789d10;
      }
    </style>
  </defs>
  <g id="_рабочая_область" data-name="рабочая область">
    <g id="_2секция" data-name="2секция">
      <path class="cls-1" d="M55.68,39.5V2.64c0-1.46-1.24-2.64-2.77-2.64s-2.77,1.19-2.77,2.64v3.25H7.89V2.64c0-1.46-1.24-2.64-2.77-2.64S2.35,1.19,2.35,2.64V39.5H0v11.05H6.05l18.23,17.5-13.95,13.27c-.64,.61-.99,1.42-1,2.28,0,.86,.35,1.68,.98,2.29,1.27,1.22,3.5,1.23,4.78,.01l13.95-13.27,13.81,13.26c.64,.61,1.49,.95,2.4,.95s1.75-.33,2.38-.94c1.32-1.26,1.33-3.31,.01-4.57l-13.81-13.26,18.42-17.52h5.62v-11.05h-2.19Zm-26.61,24l-13.48-12.95h27.08l-13.6,12.95ZM50.15,26.08v13.42H7.89v-13.42H50.15Z"/>
    </g>
  </g>
</svg>