<?xml version="1.0" encoding="UTF-8"?>
<svg id="_Слой_2" data-name="Слой 2" xmlns="http://www.w3.org/2000/svg" viewBox="0 0 35.11 36.25">
  <defs>
    <style>
      .cls-1 {
        fill: #95c11f;
      }
    </style>
  </defs>
  <g id="_рабочая_область" data-name="рабочая область">
    <g id="_6секция" data-name="6секция">
      <g>
        <path class="cls-1" d="M30.89,6.65h-1.77V2.7c0-1.49-1.21-2.7-2.7-2.7s-2.7,1.21-2.7,2.7v3.95H12.53V2.7c0-1.49-1.21-2.7-2.7-2.7s-2.7,1.21-2.7,2.7v3.95h-2.9C1.9,6.65,0,8.55,0,10.87v21.15c0,2.33,1.9,4.22,4.23,4.22H30.89c2.33,0,4.22-1.9,4.22-4.22V10.87c0-2.33-1.89-4.22-4.22-4.22Zm1.52,25.37c0,.84-.68,1.52-1.52,1.52h-4.63v-6.35h-2.58v6.35h-5.46v-6.35h-2.59v6.35h-5.46v-6.35h-2.59v6.35h-3.36c-.84,0-1.52-.68-1.52-1.52V13.52h29.71v18.5Z"/>
        <rect class="cls-1" x="7.59" y="16.33" width="2.59" height="2.59"/>
        <rect class="cls-1" x="7.59" y="21.79" width="2.59" height="2.59"/>
        <rect class="cls-1" x="15.63" y="16.33" width="2.59" height="2.59"/>
        <rect class="cls-1" x="15.63" y="21.79" width="2.59" height="2.59"/>
        <rect class="cls-1" x="23.68" y="16.33" width="2.58" height="2.59"/>
        <rect class="cls-1" x="23.68" y="21.79" width="2.58" height="2.59"/>
      </g>
    </g>
  </g>
</svg>