<?xml version="1.0" encoding="UTF-8"?>
<svg id="_Слой_2" data-name="Слой 2" xmlns="http://www.w3.org/2000/svg" viewBox="0 0 63.14 86.85">
  <defs>
    <style>
      .cls-1 {
        fill: #789d10;
      }
    </style>
  </defs>
  <g id="_рабочая_область" data-name="рабочая область">
    <g id="_2секция" data-name="2секция">
      <g>
        <path class="cls-1" d="M61.02,6.05h-15.94c.04-1.03,0-3.4-1.01-4.4-.18-.18-.32-.34-.46-.49-.51-.57-1.04-1.15-2.23-1.15H21.59c-1.19,0-1.72,.58-2.23,1.15-.14,.15-.28,.31-.46,.49-1.01,1.01-1.05,3.37-1.01,4.4H2.12c-1.16,0-2.12,.95-2.12,2.12v4.57c0,1.16,.95,2.12,2.12,2.12H61.02c1.16,0,2.12-.95,2.12-2.12v-4.57c0-1.16-.95-2.12-2.12-2.12ZM20.36,3.1c.21-.21,.39-.41,.53-.57q.43-.47,.7-.47h19.8q.27,0,.7,.47c.14,.16,.32,.35,.53,.57,.27,.28,.45,1.68,.4,2.95H19.95c-.05-1.27,.14-2.67,.4-2.95Z"/>
        <path class="cls-1" d="M31.47,16.91H4.27l5.61,65.38s.12,1.49,1.85,3.16c1.73,1.67,3.4,1.37,3.4,1.37H47.81s1.67,.3,3.4-1.37c1.73-1.67,1.85-3.16,1.85-3.16l5.61-65.38H31.47Z"/>
      </g>
    </g>
  </g>
</svg>