<?xml version="1.0" encoding="UTF-8"?>
<svg id="_Слой_2" data-name="Слой 2" xmlns="http://www.w3.org/2000/svg" viewBox="0 0 511.88 222.32">
  <defs>
    <style>
      .cls-1 {
        fill: #f3faff;
      }

      .cls-2 {
        fill: #789d10;
      }
    </style>
  </defs>
  <g id="_Цвета_и_другие_элементы_стиля" data-name="Цвета и другие элементы стиля">
    <g id="_иконки" data-name="иконки">
      <g id="logo">
        <g>
          <path class="cls-2" d="M363.67,90.64c-11.24,0-20.35,9.11-20.35,20.35s9.11,20.35,20.35,20.35,20.35-9.11,20.35-20.35-9.11-20.35-20.35-20.35Zm0,33.49c-7.26,0-13.14-5.88-13.14-13.14,0-6.07,4.13-11.17,9.72-12.68v-3.32h6.83v3.32c5.6,1.51,9.72,6.6,9.72,12.68,0,7.26-5.88,13.14-13.14,13.14Z"/>
          <path class="cls-2" d="M363.67,41.93c-38.14,0-69.06,30.92-69.06,69.06s30.92,69.06,69.06,69.06,69.06-30.92,69.06-69.06-30.92-69.06-69.06-69.06Zm49.51,29.77c-.55-.7-1.13-1.38-1.71-2.05,.58,.67,1.15,1.36,1.71,2.05Zm-6.36-6.9c-2.58-2.41-5.37-4.62-8.33-6.58,2.96,1.96,5.74,4.16,8.33,6.58Zm-24.51-14.24l8.09,3.55c3.37,1.48,6.56,3.33,9.51,5.53l6.91,5.16c1.59,1.49,3.1,3.06,4.53,4.7,.33,1.7-.38,3.56-2.12,4.5l-29.79,16.12c-2.75,1.49-6.11-.45-6.2-3.58l-.94-33.86c-.05-1.82,1.02-3.27,2.46-3.94,2.57,.46,5.09,1.05,7.54,1.81Zm-28.68,1.23l1.45,33.84c.13,3.13-3.08,5.3-5.93,4.01l-30.85-13.98c-2.99-1.36-3.34-5.47-.62-7.31l9.81-8.34c2.8-2.38,5.87-4.44,9.14-6.12l.74-.38c4.67-2.14,9.64-3.74,14.84-4.69,.81,.71,1.36,1.74,1.42,2.97Zm-38.42,18.61c.61-.73,1.24-1.44,1.88-2.14-.64,.7-1.27,1.41-1.88,2.14Zm2.18-2.47c.61-.66,1.24-1.31,1.88-1.94-.64,.63-1.27,1.28-1.88,1.94Zm9.39-8.28c1.57-1.13,3.19-2.18,4.86-3.17-1.67,.98-3.29,2.04-4.86,3.17Zm5.29-3.42c.84-.48,1.68-.95,2.54-1.4-.86,.45-1.71,.91-2.54,1.4Zm2.65-1.45c.81-.42,1.64-.82,2.47-1.2-.83,.39-1.66,.78-2.47,1.2Zm-13.19,9.09c-.72,.64-1.42,1.3-2.11,1.97,.69-.67,1.39-1.33,2.11-1.97Zm4.87-3.94c-1.56,1.14-3.07,2.36-4.52,3.63,1.45-1.28,2.96-2.49,4.52-3.63Zm-11.45,10.78c-.55,.66-1.08,1.34-1.6,2.02,.52-.68,1.06-1.36,1.6-2.02Zm-9.77,16.27c-.36,.88-.71,1.76-1.03,2.66,.32-.9,.67-1.78,1.03-2.66Zm7.9-13.9c-.56,.75-1.11,1.51-1.64,2.28,.53-.77,1.07-1.53,1.64-2.28Zm-1.93,2.72c-.47,.7-.93,1.42-1.38,2.14,.45-.72,.91-1.44,1.38-2.14Zm-1.58,2.46c-.48,.8-.95,1.61-1.39,2.42,.45-.82,.91-1.63,1.39-2.42Zm-1.69,2.97c-.41,.77-.81,1.54-1.19,2.33,.38-.79,.78-1.56,1.19-2.33Zm-1.3,2.56c-.4,.84-.78,1.7-1.15,2.56,.37-.86,.74-1.72,1.15-2.56Zm-2.27,48.99c-2.5-6.8-3.86-14.14-3.86-21.81s1.31-14.68,3.7-21.35c1.27-.7,2.9-.77,4.3,.13l28.53,18.26c2.64,1.69,2.57,5.56-.13,7.16l-29.17,17.21c-1.1,.65-2.31,.73-3.37,.39Zm10.71,18.52c.35-.81,.96-1.53,1.85-2.01l29.78-16.14c2.75-1.49,6.11,.44,6.2,3.57l.96,33.85c.03,1.03-.3,1.95-.86,2.67-15.18-2.59-28.5-10.59-37.93-21.96Zm26.3-40.33c0-12.34,10-22.34,22.34-22.34s22.34,10,22.34,22.34-10,22.34-22.34,22.34-22.34-10-22.34-22.34Zm28.39,62.93c.98-.09,1.95-.21,2.91-.35-.96,.14-1.93,.26-2.91,.35Zm2.96-.36c.93-.13,1.85-.29,2.77-.46-.92,.17-1.84,.33-2.77,.46Zm2.84-.47c-.86-.79-1.41-1.93-1.35-3.27l1.49-33.84c.14-3.13,3.53-5.01,6.26-3.48l29.52,16.6c.66,.37,1.16,.88,1.51,1.46-9.23,11.48-22.38,19.67-37.43,22.52Zm37.65-22.79c.29-.37,.58-.75,.87-1.13-.29,.38-.57,.76-.87,1.13Zm1.61-2.11c.28-.39,.55-.78,.83-1.18-.27,.39-.54,.79-.83,1.18Zm1.51-2.17c.32-.49,.63-.98,.95-1.48-.31,.5-.62,.99-.95,1.48Zm1.78-2.84c.32-.54,.64-1.08,.94-1.63-.3,.55-.62,1.09-.94,1.63Zm1.45-2.59c.25-.47,.5-.93,.73-1.4-.24,.47-.49,.94-.73,1.4Zm1.22-2.43c.22-.46,.44-.93,.65-1.4-.21,.47-.43,.93-.65,1.4Zm1.11-2.46c.2-.47,.4-.94,.59-1.41-.19,.48-.39,.95-.59,1.41Zm1.01-2.51c.18-.47,.35-.95,.52-1.42-.17,.48-.34,.95-.52,1.42Zm2.44-8.11c.21-.91,.4-1.84,.57-2.77-.17,.93-.36,1.85-.57,2.77Zm-.67,2.68c.17-.61,.32-1.23,.47-1.84-.15,.62-.3,1.23-.47,1.84Zm1.66-10.47l-1.72,10.7c-.31,1.11-.65,2.21-1.02,3.29-1.28,1.65-3.72,2.25-5.68,.93l-28.07-18.94c-2.6-1.75-2.43-5.62,.3-7.15l29.58-16.5c1.11-.62,2.32-.67,3.37-.31,2.48,6.77,3.86,14.07,3.86,21.7,0-.29-.02-.57-.02-.86-.03,2.39-.21,4.78-.59,7.15Z"/>
          <path class="cls-2" d="M298.36,50.89s1.17-.6,3.15-.23c1.99,.38,11.33,11.09,11.33,11.09,0,0,1,1.37,0,2.49s7.65-7.15,7.65-7.15c0,0-.64,.52-1.93,.33-1.28-.19-11.33-12.1-11.33-12.1,0,0-.61-.41,0-1.87s.93-2.57,.93-2.57l-8.41,5.64-1.4,4.37Z"/>
          <path class="cls-2" d="M419.86,41.71s.64,1.18,.3,3.23c-.34,2.04-11.05,11.87-11.05,11.87,0,0-1.38,1.06-2.54,.06-1.16-1,7.47,7.68,7.47,7.68,0,0-.54-.65-.38-1.97,.16-1.32,12.08-11.89,12.08-11.89,0,0,.41-.63,1.91-.04,1.5,.59,2.64,.9,2.64,.9l-5.95-8.49-4.5-1.34Z"/>
          <path class="cls-2" d="M450.48,130.87s-.76,1.12-2.73,1.75c-1.97,.64-15.62-4.36-15.62-4.36,0,0-1.57-.74-1.22-2.23s-3.39,10.16-3.39,10.16c0,0,.33-.78,1.57-1.24s16.12,5.27,16.12,5.27c0,0,.75,.07,.91,1.67,.16,1.6,.42,2.76,.42,2.76l4.81-9.18-.88-4.61Z"/>
          <path class="cls-2" d="M280.44,143.29s-.02-1.35,1.24-3c1.25-1.65,15.32-5.34,15.32-5.34,0,0,1.71-.29,2.27,1.13s-3.02-10.28-3.02-10.28c0,0,.18,.82-.58,1.92-.76,1.09-16.24,4.88-16.24,4.88,0,0-.66,.37-1.71-.85s-1.92-2.03-1.92-2.03l1.3,10.28,3.35,3.28Z"/>
          <path class="cls-2" d="M367.74,0h-8.13s-5.6,11.18-4.61,17.07c.48,2.86,4.58,2.94,8.67,2.27,4.09,.67,8.19,.59,8.67-2.27,.99-5.89-4.61-17.07-4.61-17.07Z"/>
          <path class="cls-2" d="M338.86,2.36l-3.95,.95-3.95,.95s-2.83,12.18-.49,17.67c1.13,2.66,5.14,1.79,8.96,.18,4.14-.31,8.1-1.34,7.9-4.23-.41-5.95-8.47-15.51-8.47-15.51Z"/>
          <path class="cls-2" d="M311.31,12.57l-3.52,2.04-3.52,2.04s.76,12.48,4.57,17.08c1.85,2.23,5.44,.24,8.64-2.39,3.88-1.47,7.38-3.6,6.37-6.31-2.1-5.59-12.55-12.45-12.55-12.45Z"/>
          <path class="cls-2" d="M287.77,29.21l-2.85,2.89-2.85,2.89s4.03,11.84,8.92,15.26c2.37,1.66,5.31-1.2,7.7-4.58,3.35-2.44,6.17-5.42,4.47-7.77-3.5-4.84-15.39-8.7-15.39-8.7Z"/>
          <path class="cls-2" d="M268.78,52.13l-2.02,3.52-2.02,3.52s6.9,10.43,12.5,12.5c2.72,1.01,4.83-2.51,6.29-6.39,2.62-3.21,4.59-6.81,2.36-8.65-4.61-3.79-17.09-4.51-17.09-4.51Z"/>
          <path class="cls-2" d="M257.77,78.48l-1.08,3.92-1.08,3.92s9.29,8.37,15.23,8.98c2.88,.3,4.05-3.63,4.49-7.76,1.73-3.77,2.74-7.74,.12-8.96-5.41-2.52-17.68-.09-17.68-.09Z"/>
          <path class="cls-2" d="M252.38,106.86l-.02,4.06-.02,4.06s11.15,5.65,17.04,4.69c2.86-.47,2.96-4.57,2.31-8.66,.69-4.09,.63-8.19-2.23-8.68-5.88-1.02-17.09,4.53-17.09,4.53Z"/>
          <path class="cls-2" d="M255.55,135.31l.93,3.95,.93,3.95s12.17,2.89,17.67,.58c2.67-1.12,1.81-5.13,.22-8.96-.28-4.14-1.3-8.11-4.19-7.92-5.96,.38-15.56,8.39-15.56,8.39Z"/>
          <path class="cls-2" d="M265.44,162.88l2.09,3.48,2.09,3.48s12.47-.96,17-4.84c2.2-1.88,.16-5.44-2.52-8.6-1.53-3.85-3.72-7.33-6.41-6.27-5.55,2.18-12.25,12.74-12.25,12.74Z"/>
          <path class="cls-2" d="M282.2,186.43l2.74,3,2.74,3s12.03-3.41,15.7-8.11c1.78-2.28-.92-5.36-4.18-7.93-2.27-3.47-5.09-6.44-7.53-4.87-5.01,3.24-9.48,14.92-9.48,14.92Z"/>
          <path class="cls-2" d="M303.95,205.94l3.45,2.14,3.45,2.14s10.65-6.55,12.91-12.07c1.1-2.68-2.34-4.91-6.17-6.5-3.12-2.73-6.65-4.82-8.56-2.65-3.94,4.48-5.08,16.93-5.08,16.93Z"/>
          <path class="cls-2" d="M388.5,221.21l3.95-.95,3.95-.95s2.83-12.18,.49-17.67c-1.13-2.66-5.14-1.79-8.96-.18-4.14,.31-8.1,1.34-7.9,4.23,.41,5.95,8.47,15.51,8.47,15.51Z"/>
          <path class="cls-2" d="M416.05,210.99l3.52-2.04,3.52-2.04s-.76-12.48-4.57-17.08c-1.85-2.23-5.44-.24-8.64,2.39-3.88,1.47-7.38,3.6-6.37,6.31,2.1,5.59,12.55,12.45,12.55,12.45Z"/>
          <path class="cls-2" d="M439.6,194.36l2.85-2.89,2.85-2.89s-4.03-11.84-8.92-15.26c-2.37-1.66-5.31,1.2-7.7,4.58-3.35,2.44-6.17,5.42-4.47,7.77,3.5,4.84,15.39,8.7,15.39,8.7Z"/>
          <path class="cls-2" d="M458.58,171.44l2.02-3.52,2.02-3.52s-6.9-10.43-12.5-12.5c-2.72-1.01-4.83,2.51-6.29,6.39-2.62,3.21-4.59,6.81-2.36,8.65,4.61,3.79,17.09,4.51,17.09,4.51Z"/>
          <path class="cls-2" d="M469.59,145.09l1.08-3.92,1.08-3.92s-9.29-8.37-15.23-8.98c-2.88-.3-4.05,3.63-4.49,7.76-1.73,3.77-2.74,7.74-.12,8.96,5.41,2.52,17.68,.09,17.68,.09Z"/>
          <path class="cls-2" d="M474.99,116.71l.02-4.06,.02-4.06s-11.15-5.65-17.04-4.69c-2.86,.47-2.96,4.57-2.31,8.66-.69,4.09-.63,8.19,2.23,8.68,5.88,1.02,17.09-4.53,17.09-4.53Z"/>
          <path class="cls-2" d="M471.81,88.26l-.93-3.95-.93-3.95s-12.17-2.89-17.67-.58c-2.67,1.12-1.81,5.13-.22,8.96,.28,4.14,1.3,8.11,4.19,7.92,5.96-.38,15.56-8.39,15.56-8.39Z"/>
          <path class="cls-2" d="M461.93,60.69l-2.09-3.48-2.09-3.48s-12.47,.96-17,4.84c-2.2,1.88-.16,5.44,2.52,8.6,1.53,3.85,3.72,7.33,6.41,6.27,5.55-2.18,12.25-12.74,12.25-12.74Z"/>
          <path class="cls-2" d="M445.17,37.14l-2.74-3-2.74-3s-12.03,3.41-15.7,8.11c-1.78,2.28,.92,5.36,4.18,7.93,2.27,3.47,5.09,6.44,7.53,4.87,5.01-3.24,9.48-14.92,9.48-14.92Z"/>
          <path class="cls-2" d="M423.41,17.63l-3.45-2.14-3.45-2.14s-10.65,6.55-12.91,12.07c-1.1,2.68,2.34,4.91,6.17,6.5,3.12,2.73,6.65,4.82,8.56,2.65,3.94-4.48,5.08-16.93,5.08-16.93Z"/>
          <path class="cls-2" d="M396.83,4.74l-3.93-1.05-3.93-1.05s-8.29,9.36-8.85,15.3c-.27,2.88,3.67,4.02,7.79,4.43,3.78,1.7,7.76,2.68,8.96,.05,2.47-5.43-.05-17.68-.05-17.68Z"/>
          <path class="cls-2" d="M330.86,217.04l3.86,1.28,3.86,1.28s8.84-8.84,9.76-14.74c.45-2.86-3.42-4.23-7.51-4.89-3.67-1.93-7.59-3.15-8.95-.59-2.8,5.27-1.01,17.65-1.01,17.65Z"/>
          <path class="cls-2" d="M359.62,222.32h4.06s4.06,0,4.06,0c0,0,5.6-11.18,4.6-17.07-.48-2.86-4.58-2.94-8.67-2.26-4.09-.67-8.19-.59-8.67,2.27-.99,5.89,4.62,17.06,4.62,17.06Z"/>
          <path class="cls-2" d="M363.67,16.67c-52.12,0-94.38,42.25-94.38,94.38s42.25,94.38,94.38,94.38,94.38-42.25,94.38-94.38-42.25-94.38-94.38-94.38Zm0,183.17c-49.04,0-88.8-39.76-88.8-88.8s39.76-88.8,88.8-88.8,88.8,39.76,88.8,88.8-39.76,88.8-88.8,88.8Z"/>
        </g>
        <g>
          <path class="cls-1" d="M0,40.12c3.37-.69,8.19-1.07,12.78-1.07,7.12,0,11.71,1.3,14.93,4.21,2.6,2.3,4.06,5.82,4.06,9.8,0,6.81-4.29,11.33-9.72,13.17v.23c3.98,1.38,6.35,5.05,7.58,10.41,1.68,7.2,2.91,12.17,3.98,14.16h-6.89c-.84-1.45-1.99-5.89-3.44-12.32-1.53-7.12-4.29-9.8-10.33-10.03H6.66v22.35H0V40.12Zm6.66,23.5h6.81c7.12,0,11.63-3.9,11.63-9.8,0-6.66-4.82-9.57-11.86-9.64-3.22,0-5.51,.31-6.58,.61v18.83Z"/>
          <path class="cls-1" d="M85.5,64.7c0,17.76-10.79,27.17-23.96,27.17s-23.19-10.56-23.19-26.18c0-16.38,10.18-27.1,23.96-27.1s23.19,10.79,23.19,26.1Zm-40.03,.84c0,11.02,5.97,20.9,16.46,20.9s16.53-9.72,16.53-21.43c0-10.26-5.36-20.97-16.46-20.97s-16.53,10.18-16.53,21.51Z"/>
          <path class="cls-1" d="M102.04,45.1h-15.69v-5.67h38.2v5.67h-15.77v45.93h-6.74V45.1Z"/>
          <path class="cls-1" d="M132.89,74.8l-5.36,16.23h-6.89l17.53-51.59h8.04l17.61,51.59h-7.12l-5.51-16.23h-18.29Zm16.92-5.2l-5.05-14.85c-1.15-3.37-1.91-6.43-2.68-9.42h-.15c-.77,3.06-1.61,6.2-2.6,9.34l-5.05,14.93h15.54Z"/>
          <path class="cls-1" d="M171.39,40.12c3.37-.69,8.19-1.07,12.78-1.07,7.12,0,11.71,1.3,14.93,4.21,2.6,2.3,4.06,5.82,4.06,9.8,0,6.81-4.29,11.33-9.72,13.17v.23c3.98,1.38,6.35,5.05,7.58,10.41,1.68,7.2,2.91,12.17,3.98,14.16h-6.89c-.84-1.45-1.99-5.89-3.44-12.32-1.53-7.12-4.29-9.8-10.33-10.03h-6.28v22.35h-6.66V40.12Zm6.66,23.5h6.81c7.12,0,11.63-3.9,11.63-9.8,0-6.66-4.82-9.57-11.86-9.64-3.22,0-5.51,.31-6.58,.61v18.83Z"/>
          <path class="cls-1" d="M223.22,91.03v-21.89l-16.3-29.7h7.58l7.27,14.24c1.99,3.9,3.52,7.04,5.13,10.64h.15c1.45-3.37,3.21-6.74,5.2-10.64l7.43-14.24h7.58l-17.3,29.62v21.97h-6.74Z"/>
          <path class="cls-1" d="M6.66,131.3v51.59H0v-51.59H6.66Z"/>
          <path class="cls-1" d="M18.3,182.89v-51.59h7.27l16.53,26.1c3.83,6.05,6.81,11.48,9.26,16.76l.15-.08c-.61-6.89-.77-13.17-.77-21.2v-21.59h6.28v51.59h-6.74l-16.38-26.18c-3.6-5.74-7.04-11.63-9.64-17.22l-.23,.08c.38,6.51,.54,12.71,.54,21.28v22.05h-6.28Z"/>
          <path class="cls-1" d="M78.46,136.96h-15.69v-5.67h38.2v5.67h-15.77v45.93h-6.74v-45.93Z"/>
          <path class="cls-1" d="M133.42,158.7h-20.06v18.6h22.35v5.59h-29.01v-51.59h27.86v5.59h-21.2v16.3h20.06v5.51Z"/>
          <path class="cls-1" d="M144.37,131.98c3.37-.69,8.19-1.07,12.78-1.07,7.12,0,11.71,1.3,14.93,4.21,2.6,2.3,4.06,5.82,4.06,9.8,0,6.81-4.29,11.33-9.72,13.17v.23c3.98,1.38,6.35,5.05,7.58,10.41,1.68,7.2,2.91,12.17,3.98,14.16h-6.89c-.84-1.45-1.99-5.89-3.44-12.32-1.53-7.12-4.29-9.8-10.33-10.03h-6.28v22.35h-6.66v-50.9Zm6.66,23.5h6.81c7.12,0,11.63-3.9,11.63-9.8,0-6.66-4.82-9.57-11.86-9.64-3.22,0-5.51,.31-6.58,.61v18.83Z"/>
          <path class="cls-1" d="M185.55,182.89v-51.59h7.27l16.53,26.1c3.83,6.05,6.81,11.48,9.26,16.76l.15-.08c-.61-6.89-.77-13.17-.77-21.2v-21.59h6.28v51.59h-6.74l-16.38-26.18c-3.6-5.74-7.04-11.63-9.64-17.22l-.23,.08c.38,6.51,.54,12.71,.54,21.28v22.05h-6.28Z"/>
          <path class="cls-1" d="M244.27,166.66l-5.36,16.23h-6.89l17.53-51.59h8.04l17.61,51.59h-7.12l-5.51-16.23h-18.29Zm16.92-5.2l-5.05-14.85c-1.15-3.37-1.91-6.43-2.68-9.42h-.15c-.77,3.06-1.61,6.2-2.6,9.34l-5.05,14.93h15.54Z"/>
          <path class="cls-1" d="M286.68,136.96h-15.69v-5.67h38.2v5.67h-15.77v45.93h-6.74v-45.93Z"/>
          <path class="cls-1" d="M321.58,131.3v51.59h-6.66v-51.59h6.66Z"/>
          <path class="cls-1" d="M377.31,156.56c0,17.76-10.79,27.17-23.96,27.17s-23.19-10.56-23.19-26.18c0-16.38,10.18-27.1,23.96-27.1s23.19,10.79,23.19,26.1Zm-40.03,.84c0,11.02,5.97,20.9,16.46,20.9s16.53-9.72,16.53-21.43c0-10.26-5.36-20.97-16.46-20.97s-16.53,10.18-16.53,21.51Z"/>
          <path class="cls-1" d="M385.96,182.89v-51.59h7.27l16.53,26.1c3.83,6.05,6.81,11.48,9.26,16.76l.15-.08c-.61-6.89-.77-13.17-.77-21.2v-21.59h6.28v51.59h-6.74l-16.38-26.18c-3.6-5.74-7.04-11.63-9.64-17.22l-.23,.08c.38,6.51,.54,12.71,.54,21.28v22.05h-6.28Z"/>
          <path class="cls-1" d="M444.67,166.66l-5.36,16.23h-6.89l17.53-51.59h8.04l17.61,51.59h-7.12l-5.51-16.23h-18.29Zm16.92-5.2l-5.05-14.85c-1.15-3.37-1.91-6.43-2.68-9.42h-.15c-.77,3.06-1.61,6.2-2.6,9.34l-5.05,14.93h15.54Z"/>
          <path class="cls-1" d="M483.18,131.3h6.66v46h22.05v5.59h-28.71v-51.59Z"/>
        </g>
      </g>
    </g>
  </g>
</svg>