<?xml version="1.0" encoding="UTF-8"?>
<svg id="_Слой_2" data-name="Слой 2" xmlns="http://www.w3.org/2000/svg" xmlns:xlink="http://www.w3.org/1999/xlink" viewBox="0 0 1931.89 1781.06">
  <defs>
    <style>
      .cls-1 {
        fill: #0a0f12;
      }

      .cls-2 {
        fill: #160651;
      }

      .cls-3 {
        fill: url(#_Безымянный_градиент_3-3);
      }

      .cls-4 {
        fill: #504e51;
      }

      .cls-5 {
        fill: url(#_Безымянный_градиент_3-2);
      }

      .cls-6 {
        fill: #6b8c12;
      }

      .cls-7 {
        fill: #d3db3e;
        opacity: .59;
      }

      .cls-8 {
        fill: #86aeab;
      }

      .cls-9 {
        fill: #a5c3c0;
      }

      .cls-10 {
        fill: #0f1120;
      }

      .cls-11 {
        fill: #5a6a70;
      }

      .cls-12 {
        fill: #5e7a14;
      }

      .cls-13 {
        fill: url(#_Безымянный_градиент_3);
      }

      .cls-14 {
        fill: #46565b;
      }

      .cls-15 {
        fill: #647032;
      }

      .cls-16 {
        fill: #101111;
        opacity: .5;
      }

      .cls-17 {
        fill: #3b2635;
      }
    </style>
    <linearGradient id="_Безымянный_градиент_3" data-name="Безымянный градиент 3" x1="965.95" y1="1614.08" x2="965.95" y2="86.76" gradientUnits="userSpaceOnUse">
      <stop offset="0" stop-color="#403e7f"/>
      <stop offset="1" stop-color="#9480f3"/>
    </linearGradient>
    <linearGradient id="_Безымянный_градиент_3-2" data-name="Безымянный градиент 3" x1="5.95" y1="110.11" x2="1925.95" y2="110.11" xlink:href="#_Безымянный_градиент_3"/>
    <linearGradient id="_Безымянный_градиент_3-3" data-name="Безымянный градиент 3" x1="5.95" y1="161.07" x2="1925.95" y2="161.07" xlink:href="#_Безымянный_градиент_3"/>
  </defs>
  <g id="_рабочая_область" data-name="рабочая область">
    <g id="_5секция" data-name="5секция">
      <g>
        <polygon class="cls-13" points="5.95 200.8 343.63 235.7 709.24 110.11 1043.9 86.76 1482.99 169.49 1820.39 135.78 1925.95 89.03 1925.95 1614.08 5.95 1614.08 5.95 200.8"/>
        <circle class="cls-7" cx="967.51" cy="858.08" r="228.73"/>
        <g>
          <g>
            <polygon class="cls-12" points="305.86 986.85 350.46 955.53 297.35 1024.29 282.71 1152.98 334.12 1106.68 334.12 1166.93 288.84 1209.49 340.24 1187.02 340.24 1416.21 364.41 1427.72 364.41 656.63 305.86 986.85"/>
            <polygon class="cls-6" points="484.41 1214.25 375.65 1084.55 450.46 1123.61 424.93 1010.25 376.16 981.15 422.12 1000.04 406.8 922.42 365.18 894.85 402.46 911.19 364.41 656.63 364.41 1427.72 484.41 1484.89 484.41 1214.25"/>
          </g>
          <g>
            <polygon class="cls-12" points="616.67 1061.4 649.01 1039.95 628.93 1074.34 640.45 1181.91 614.43 1207.93 643.9 1193.83 643.9 1248.98 602.03 1272.46 602.03 1415.97 660.93 1415.97 660.93 835.02 616.67 1061.4"/>
            <polygon class="cls-6" points="666.46 1125.15 715.73 1141.23 703.82 1076.04 673.52 1057.66 673.52 1052.38 701.27 1067.19 692.41 1013.91 662.46 1000.12 662.46 993.15 688.33 1004.04 660.93 835.02 660.93 1415.97 722.88 1415.97 722.88 1181.57 666.46 1125.15"/>
          </g>
          <g>
            <polygon class="cls-8" points="677.18 1215.02 717.78 1193.83 675.14 1250 667.73 1370.76 712.41 1326.08 659.22 1423.87 739.9 1423.87 739.9 846.25 677.18 1215.02"/>
            <polygon class="cls-9" points="843.9 1363.53 799.14 1320.8 837.01 1341.4 814.46 1221.06 777.69 1204.38 777.69 1187.7 807.14 1203.36 778.03 1173.23 778.03 1136.63 807.39 1149.91 739.9 846.25 739.9 1423.87 854.12 1423.87 843.9 1363.53"/>
          </g>
          <g>
            <polygon class="cls-8" points="491.05 1000.8 544.67 962 544.67 1090.68 468.07 1127.44 529.69 1118.59 465.52 1157.91 524.76 1150.93 450.97 1219.1 437.18 1294.42 507.9 1264.8 437.18 1322.51 437.18 1349.65 484.93 1458.85 550.8 1438.99 550.8 511.61 491.05 1000.8"/>
            <polygon class="cls-9" points="659.22 1280.12 604.41 1247.95 604.41 1158.59 652.16 1189.49 636.59 998 605.95 950.76 629.18 963.53 550.8 511.61 550.8 1438.99 659.22 1406.32 659.22 1280.12"/>
          </g>
          <g>
            <polygon class="cls-8" points="830.88 1357.63 848.5 1342.76 848.5 1357.63 826.8 1378.94 847.99 1371.93 841.73 1433.07 859.73 1438.9 859.73 1188.21 830.88 1357.63"/>
            <polygon class="cls-9" points="880.33 1403.81 900.24 1405.5 881.69 1346.97 859.73 1188.21 859.73 1438.9 885.06 1447.1 880.33 1403.81"/>
          </g>
          <g>
            <polygon class="cls-12" points="1077.52 1183.61 1105.86 1162.85 1070.8 1212.21 1063.99 1290.17 1094.97 1269.4 1094.97 1308.89 1069.44 1331.36 1098.03 1320.12 1098.03 1379.7 1060.93 1428.04 1084.07 1430.08 1084.07 1459.7 1043.9 1474 1043.9 1513.06 1113.52 1521.47 1113.52 954.59 1077.52 1183.61"/>
            <polygon class="cls-6" points="1156.41 1396.8 1196.24 1396.8 1126.8 1256.12 1173.01 1274.51 1153.86 1202.76 1123.99 1180.04 1153.61 1189.74 1141.61 1143.78 1120.07 1125.15 1142.37 1133.32 1113.52 954.59 1113.52 1521.47 1165.29 1527.72 1165.29 1451.95 1191.14 1455.78 1156.41 1430.25 1156.41 1396.8"/>
          </g>
          <g>
            <polygon class="cls-8" points="1242.2 1386.29 1269.27 1369.07 1269.27 1380.2 1238.5 1404.44 1235.56 1452.01 1262.12 1441.81 1262.24 1453.07 1239.78 1472.28 1266.2 1459.56 1266.2 1489.11 1219.73 1516.66 1219.73 1539.19 1254.97 1519.71 1254.97 1535.61 1214.5 1559.06 1214.5 1587.02 1285.61 1587.02 1285.61 1241.61 1242.2 1386.29"/>
            <polygon class="cls-9" points="1289.69 1417.03 1320.84 1434.69 1285.61 1241.61 1285.61 1587.02 1320.84 1587.02 1320.84 1466.49 1289.69 1448.47 1289.69 1417.03"/>
          </g>
          <g>
            <polygon class="cls-8" points="1307.05 1401.39 1330.8 1376.75 1330.8 1383.64 1302.62 1412.89 1296.33 1508.98 1318.54 1483.81 1318.54 1537.86 1291.73 1558.66 1291.73 1583.18 1335.39 1583.18 1335.39 1204.77 1307.05 1401.39"/>
            <polygon class="cls-9" points="1354.8 1414.31 1377.55 1437.93 1335.39 1204.77 1335.39 1583.18 1351.61 1583.18 1351.61 1506.59 1367.14 1512.25 1354.8 1475.86 1354.8 1414.31"/>
          </g>
          <g>
            <polygon class="cls-12" points="1344.84 1127.31 1375.82 1103.29 1343.48 1147.1 1332.84 1233.13 1363.31 1206.98 1363.31 1254.15 1339.39 1277.47 1368.33 1264.22 1368.33 1323.4 1340.76 1341.42 1340.76 1572.62 1382.97 1572.62 1382.97 897.66 1344.84 1127.31"/>
            <polygon class="cls-6" points="1454.45 1285.94 1448.33 1265.46 1394.54 1196.91 1446.63 1220.59 1426.88 1146.39 1388.76 1122.36 1427.69 1134.29 1412.5 1083.15 1383.14 1062.87 1410.33 1070.69 1382.97 897.66 1382.97 1572.62 1471.82 1572.62 1454.45 1285.94"/>
          </g>
          <g>
            <polygon class="cls-8" points="1583.69 1115.06 1605.14 1100.89 1581.14 1126.42 1579.22 1147.49 1616.76 1119.78 1592.5 1171.87 1557.95 1278.25 1557.95 1364.38 1618.2 1364.38 1618.2 973.57 1583.69 1115.06"/>
            <polygon class="cls-9" points="1678.46 1237.06 1633.69 1156.89 1660.05 1160.09 1618.2 973.57 1618.2 1364.38 1689.27 1364.38 1678.46 1237.06"/>
          </g>
          <g>
            <polygon class="cls-12" points="1715.56 990.85 1765.35 975.27 1763.05 1028.89 1713.01 1062.34 1762.03 1041.66 1762.03 1073.32 1713.01 1095.27 1713.01 1263.27 1795.22 1263.27 1795.22 583.36 1715.56 990.85"/>
            <polygon class="cls-6" points="1874.83 998.2 1795.22 583.36 1795.22 1263.27 1906.54 1263.27 1874.83 998.2"/>
          </g>
        </g>
        <path class="cls-5" d="M5.95,131.58s68.94,75.06,292.09,52.09S562.54,73.37,782.63,49.88c220.09-23.49,392.17,20.94,474.89,43.91,82.72,22.98,200.17,48.51,317.11,51.06,116.94,2.55,231.32-22.98,316.09-107.74,14.83-14.83,26.34-27.04,35.23-37.11V94.02s-43.23,66.16-178.38,79.77c-135.15,13.62-340.94-21.79-422.13-44.26-81.19-22.47-195.07-71.01-393.7-69.45-260.17,2.04-226.76,27.75-488.43,127.95C298.54,243.47,127.22,222.73,5.95,160.69v-29.11Z"/>
        <path class="cls-3" d="M5.95,200.8s61.28,68.77,250.21,63.15c188.94-5.62,320.17-82.72,418.21-126.13,98.04-43.4,161.87-32.7,279.06-32.7s280.34,33.72,468.77,69.72c188.43,36,383.38,34.55,503.74-85.82l-30.5,26.81c-64.71,53.08-151.24,55.75-151.24,55.75-135.15,13.62-340.94-21.79-422.13-44.26-81.19-22.47-195.07-71.01-393.7-69.45-260.17,2.04-226.76,27.75-488.43,127.95,0,0-114.35,41.18-252.22,28.07C49.86,200.8,5.95,138.34,5.95,138.34v62.47Z"/>
        <g>
          <path class="cls-14" d="M882.2,1159.74v-87.45s-2.36-31.83,22.88-31.83h116.12s31.11-1.36,31.11,31.83,0,87.45,0,87.45h-170.11"/>
          <path class="cls-11" d="M882.2,1118.93v99.49s-.19,17.99,32.11,29.53c32.3,11.54,62.62,7.15,62.62,7.15,0,0,33.93,8.14,56.65-14.59,22.72-22.72,18.41-17.33,18.41-17.33v-105.45s-35.15,39.32-84.85,39.32-84.93-38.13-84.93-38.13Z"/>
          <path class="cls-15" d="M940.76,1181.23h48v36.94s-2.72,22.81-22.81,22.81-25.19-21.79-25.19-21.79v-37.96Z"/>
          <path class="cls-2" d="M932.83,1443.88s1.45-57.29,3.75-76.69c2.3-19.4-1.88-98.3-1.88-98.3,0,0-25.83-12.51-30.04-15.19-4.21-2.68-4.98-12.51-4.98-12.51,0,0,35.87,15.7,77.23,13.91,41.36-1.79,63.57-21.45,63.57-21.45,0,0-2.3,171.57,0,194.3,2.3,22.72,6.17,84.96,6.17,84.96l-10,4.66-12.15-12.62-4.95-33.08s-6.89-56.68-4.34-73.28c2.55-16.6-2.04-122.55-5.11-129.19,0,0-11.49,2.55-21.96,2.55s-18.89-1.53-18.89-1.53c0,0-1.28,70.72-3.32,82.98s-7.91,45.07-7.91,63-6.96,36.95-6.96,36.95c0,0-12.17-6.56-18.24-9.47Z"/>
          <g>
            <path class="cls-4" d="M919.31,926.08s13.62-19.74,32.51-13.28c0,0,1.7-14.64,23.32-12.77s15.83,9.2,21.45,12.94c5.62,3.74,11.74,3.74,15.66,7.66s3.32,22.04,0,25.36-3.74,10.04,1.19,13.11c4.94,3.06,4.89,14.6,.77,18.72s-6.55,4.13-6.55,4.13h-82.21s-13.35-3.96-13.35-12.64,6.03-5.11,7.39-12.6c1.36-7.49-5.11-17.87-.17-30.64Z"/>
            <path class="cls-1" d="M1007.65,983.45h-82.43l-.21-.06c-.59-.17-14.42-4.39-14.42-14.08,0-5.45,2.33-6.99,4.21-8.23,1.5-.99,2.69-1.78,3.21-4.64,.47-2.58-.11-5.66-.79-9.24-1.12-5.96-2.52-13.37,.69-21.67l.17-.31c.14-.2,13.74-19.53,32.67-14.33,1.29-4.1,6.3-13.93,24.52-12.36,14.76,1.28,17.54,4.98,19.64,9.68,.65,1.46,1.17,2.61,2.51,3.51,2.4,1.6,4.94,2.48,7.4,3.34,3.15,1.1,6.12,2.13,8.49,4.5,3.06,3.06,3.19,11.48,3.15,13.99-.07,5.07-.93,11.28-3.15,13.5-1.48,1.48-2.28,3.87-2.02,6.09,.16,1.4,.8,3.36,2.94,4.68,2.36,1.46,3.91,4.45,4.37,8.41,.48,4.16-.36,9.69-3.33,12.65-4.35,4.35-7.11,4.57-7.61,4.57Zm-81.98-3h81.98s2-.2,5.49-3.69c1.89-1.9,2.93-6.18,2.47-10.19-.34-2.98-1.43-5.24-2.97-6.2-2.46-1.53-4-3.97-4.34-6.89-.36-3.14,.74-6.42,2.88-8.55,1.04-1.04,2.19-5.4,2.27-11.42,.08-5.63-.84-10.39-2.27-11.82-1.89-1.89-4.42-2.77-7.36-3.79-2.51-.88-5.36-1.87-8.08-3.68-2.07-1.38-2.87-3.19-3.58-4.78-1.47-3.29-2.98-6.68-17.16-7.91-19.94-1.73-21.68,11.31-21.7,11.44l-.21,1.85-1.76-.6c-16.81-5.75-29.46,10.88-30.69,12.57-2.82,7.44-1.57,14.04-.48,19.86,.7,3.71,1.36,7.2,.79,10.33-.75,4.12-2.83,5.49-4.51,6.6-1.66,1.1-2.86,1.89-2.86,5.73,0,6.93,10.51,10.62,12.08,11.14Z"/>
          </g>
          <path class="cls-1" d="M952.58,949.69l-.49-2.96h0s2.81-.65,8.04-5.88c5.09-5.09,1.53-17.63,1.49-17.75l2.88-.84c.17,.58,4.09,14.37-2.25,20.71-5.96,5.96-9.3,6.66-9.66,6.72Z"/>
          <g>
            <path class="cls-4" d="M963.18,938.85s-1.3,6.64,4.05,7.66"/>
            <path class="cls-1" d="M966.95,947.98c-1.79-.34-3.18-1.22-4.12-2.61-1.89-2.79-1.16-6.65-1.13-6.81l2.94,.58-1.47-.29,1.47,.28c-.1,.53-.87,5.19,2.86,5.9l-.56,2.95Z"/>
          </g>
          <rect class="cls-15" x="945.9" y="1127.83" width="37.02" height="15.83" rx="5.55" ry="5.55"/>
          <path class="cls-15" d="M866.63,981.15v49.31c0,5.52,4.48,10,10,10h178.64c5.52,0,10-4.48,10-10v-49.31h-198.64Z"/>
          <rect class="cls-17" x="930.53" y="981.15" width="7" height="59.32"/>
          <rect class="cls-17" x="995.89" y="981.15" width="7" height="59.32"/>
          <path class="cls-14" d="M882.17,1159.74h-9.96s-1.15,32.81,4.98,37.02h4.98v-37.02Z"/>
          <path class="cls-14" d="M1051.75,1159.74h9.96s1.15,32.81-4.98,37.02h-4.98v-37.02Z"/>
          <path class="cls-17" d="M905.06,1196.76c0,1.93,1.57,3.5,3.5,3.5s3.5-1.57,3.5-3.5v-156.3h-7v156.3Z"/>
          <path class="cls-17" d="M1014.17,1193.09c0,1.89,1.57,3.42,3.5,3.42s3.5-1.53,3.5-3.42v-152.62h-7v152.62Z"/>
        </g>
        <path class="cls-10" d="M1925.95,1607.95V221.22l-113.7,589.41,85.45-20.07v87.67l-94.3,73.59,93.62-46.83v57.39l-106.55,41.2-44.6,194.71-49.36-261.96-52.09,288.72,34.04-7.04v64.08l-106.89,62.32-13.62-83.8,78.64,31.34-25.53-137.32-95.32-120.07,76.94,41.9-26.55-120.07-48.68-28.87,1.7-5.46,12.09-.53,30.64,15.67-16-83.27-42.89-24.82,1.36-11.27,38.13,19.19-42.72-295.76-64.34,388.01,43.91-35.91v11.62l-48.68,58.8-15.32,144.01,53.11-50.35v72.18l-45.28,46.83,50.04-22.18v88.38l-83.74,50.35-2.72,61.26,66.04-35.21-10.21,67.25-68.77,30.98-10.89,120.07-124.94,14.44s-64.68-39.96-130.04-45.77c-65.36-5.81-73.53-1.06-73.53-1.06,0,0-63.83-71.83-183.32-104.57-119.49-32.75-302.81,2.11-366.13,47.01,0,0-20.94-95.59-94.98-172.18-74.04-76.58-133.79-93.48-133.79-93.48l-27.74-41.55,64.17,32.39-98.21-520.05-35.97,196.21-7.43-50.45-78.38-51.1,15.45-4.36,55.92,26.94-25.15-125.87-71.15-50.17,11.06-3.52,51.74,24.82L21.93,182.31,5.95,399.03V1781.06H1926.38v-173.11h-.43ZM139.23,953.35l-8.17,44.59-54.13-75,62.3,30.4Z"/>
        <rect class="cls-16" width="1931.89" height="1781.06"/>
      </g>
    </g>
  </g>
</svg>