<?xml version="1.0" encoding="UTF-8"?>
<svg id="_Слой_2" data-name="Слой 2" xmlns="http://www.w3.org/2000/svg" viewBox="0 0 505.3 409.75">
  <defs>
    <style>
      .cls-1 {
        fill: #fff;
      }

      .cls-2 {
        fill: #789d10;
      }
    </style>
  </defs>
  <g id="_Цвета_и_другие_элементы_стиля" data-name="Цвета и другие элементы стиля">
    <g id="_иконки" data-name="иконки">
      <g>
        <path class="cls-2" d="M326.66,97.97s-46.67-10.34-73.89,15.65c-27.22,25.99-26.03,39.97-26.03,39.97,0,0,0,7.83,1.5,13.42,1.5,5.59,4.49,14.26,4.49,16.77s-11.07,57.86-11.07,57.86c0,0-4.3,1.92-5.53-28.06,0,0-1.46-20.65-11.55-26.94,0,0-53.28-10.48-63.72-11.63,0,0,9.31,2.93,11.22,8.18s1.01,33.44,2.8,39.52,5.38,18.66,29.73,20.33c24.34,1.68,18.51-4.4,35.11,2.62l9.09,20.23-44.31-10.06s4.04,16.46,16.49,24.74l31.63,7.76s14.36-.63-2.13,30.92c0,0,19.97-.73,28.04,.63,8.08,1.36,17.61,1.47,17.61,1.47l-18.62-14.78-.11-23.9s5.83,6.5,17.05,7.55,32.42-7.97,46.33-23.37c13.91-15.41,2.36-22.95,23.33-45.39l16.27-11.84s-34.89-19.18-73.81-1.78c-38.93,17.4-42.29,75.05-42.29,75.05,0,0-14.25-28.41-13.35-45.91,.9-17.5,8.64-51.99,8.64-51.99,0,0,31.97,6.6,45.99-2.52,14.02-9.12,20.08-43.81,20.3-49.89,.22-6.08,4.23-27.25,20.79-34.59Z"/>
        <path class="cls-1" d="M0,147.44s16.45-51.15,32.91-67.36l43.23-8.25S157.05-.56,170.36,0c13.31,.56,110.83,0,110.83,0,0,0,62.82,18.17,69.85,30.19,7.03,12.02-7.33,17.96-7.33,17.96,0,0-18.55,2.31-31.11,0-12.56-2.31-35.75-10.69-35.75-10.69,0,0-15.26-4.89-22.14-3.77s-19.29,1.4-19.29,1.4c0,0-5.98-10.48-16.45-9.92s-13.84,3.91-13.84,3.91l-50.63,47.24s-.82,2.59-.37,3.63,6.36-.84,6.36-.84l51.38-47.87s9.27-4.19,15.93,2.59c6.66,6.78,3.29,12.23,3.29,12.23,0,0-41.88,51.92-88.55,85.67,0,0-14.36,12.16-35.22,15.72-20.87,3.56-107.32,0-107.32,0Z"/>
        <path class="cls-1" d="M505.3,262.3s-16.45,51.15-32.91,67.36l-43.23,8.25s-80.92,72.39-94.23,71.83c-13.31-.56-110.83,0-110.83,0,0,0-62.82-18.17-69.85-30.19-7.03-12.02,7.33-17.96,7.33-17.96,0,0,18.55-2.31,31.11,0,12.56,2.31,35.75,10.69,35.75,10.69,0,0,15.26,4.89,22.14,3.77,6.88-1.12,19.29-1.4,19.29-1.4,0,0,5.98,10.48,16.45,9.92,10.47-.56,13.84-3.91,13.84-3.91l50.63-47.24s.82-2.59,.37-3.63-6.36,.84-6.36,.84l-51.38,47.87s-9.27,4.19-15.93-2.59c-6.66-6.78-3.29-12.23-3.29-12.23,0,0,41.88-51.92,88.55-85.67,0,0,14.36-12.16,35.22-15.72s107.32,0,107.32,0Z"/>
      </g>
    </g>
  </g>
</svg>